<?xml version="1.0" encoding="UTF-8"?>
<!DOCTYPE svg PUBLIC "-//W3C//DTD SVG 1.1//EN" "http://www.w3.org/Graphics/SVG/1.1/DTD/svg11.dtd">
<!-- Creator: CorelDRAW 2017 -->
<svg xmlns="http://www.w3.org/2000/svg" xml:space="preserve" width="158.738mm" height="28.618mm" version="1.1" style="shape-rendering:geometricPrecision; text-rendering:geometricPrecision; image-rendering:optimizeQuality; fill-rule:evenodd; clip-rule:evenodd"
viewBox="0 0 15873.8 2861.8"
 xmlns:xlink="http://www.w3.org/1999/xlink">
 <defs>
  <style type="text/css">
   <![CDATA[
    .fil0 {fill:none}
    .fil1 {fill:#2D6987;fill-rule:nonzero}
    .fil3 {fill:#A5A8AE;fill-rule:nonzero}
    .fil2 {fill:#F6931D;fill-rule:nonzero}
   ]]>
  </style>
 </defs>
 <g id="Layer_x0020_1">
  <metadata id="CorelCorpID_0Corel-Layer"/>
  <g id="_1863659147936">
   <rect class="fil0" x="-0.02" y="34.27" width="15873.79" height="2792.49"/>
   <path class="fil1" d="M2218.46 660.82l-38.59 66 -575.19 195.53c0,0 -40.99,-327.44 -429.77,-327.44 -281.99,0 -316.08,100.78 -316.08,195.54 0,66.47 52.35,149.31 203.91,191.74 105.28,29.5 281.39,43.45 500.19,107.63 762.5,223.6 730.69,744.23 730.69,835.21 0,309.25 -207.69,936.76 -1132.37,936.76 -1050.39,0 -1161.25,-779.87 -1161.25,-779.87l47.16 -66 620.67 -140.89c0,0 20.56,386.54 497.94,386.54 383.56,0 391.09,-177.38 391.09,-247.89 0,-231.15 -561.07,-227.07 -902.6,-377.41 -259.96,-114.46 -507.08,-275.12 -507.08,-786.7 0,-479.72 429,-849.58 1014.07,-849.58 585.15,0 914.05,263.74 1057.21,660.83z"/>
   <polygon class="fil1" points="5726.75,91.36 5726.75,2774.28 5664.92,2825.39 5068.17,2825.39 5006.49,2774.28 5006.49,908.25 4411.19,2825.39 3892.38,2825.39 3331.79,896.77 3331.79,2774.28 3269.94,2825.39 2771.69,2825.39 2709.91,2774.28 2709.91,91.36 2771.69,37.86 3269.94,37.86 3280.02,46.6 3280.02,37.86 3774.58,37.86 4194.35,1511.21 4651.67,37.86 5664.92,37.86 "/>
   <path class="fil1" d="M10628.76 1611.24c266.46,-139.14 448.55,-418 448.55,-739.52 0,-460.6 -373.21,-833.86 -833.46,-833.86l-1358.28 0 -61.72 53.5 0 2682.92 61.72 51.11 596.73 0 61.85 -51.11 0 -1018.97 376.93 0 412.15 1070.08 718.46 0 50.02 -70.62 -472.95 -1143.53zm-591.54 -407.79l0 0 -493.07 0 0 -585.84 493.07 0c161.8,0 292.91,131.11 292.91,293 0,161.67 -131.11,292.84 -292.91,292.84z"/>
   <polygon class="fil1" points="13320.43,37.86 12633.74,37.86 12036.96,37.86 11348.06,37.86 11296.9,99.7 11296.9,603.58 11348.06,665.42 11975.21,665.42 11975.21,2774.19 12036.96,2825.39 12633.74,2825.39 12695.5,2774.19 12695.5,665.42 13320.43,665.42 13373.81,603.62 13373.81,99.73 "/>
   <path class="fil1" d="M7432.02 1079.21l-129.59 0 -106.84 0 -279.69 859.46 15.88 18.16 188.73 0 50.02 -170.5 263.75 0 49.98 170.5 211.51 0 15.84 -18.16 -279.59 -859.46zm-211.43 518.39l0 0 81.84 -211.45 81.84 211.45 -163.68 0z"/>
   <path class="fil1" d="M6503.67 1345.87c0,-564.5 467.7,-1022.09 1044.57,-1022.09 214.17,0 413.21,63.18 578.89,171.31 -186.07,-190.95 -445.77,-309.66 -733.44,-309.66 -565.61,0 -1024.16,458.54 -1024.16,1024.16 0,323.3 150.01,611.45 383.96,799.13 -155.67,-178.42 -249.82,-409.83 -249.82,-662.85z"/>
   <path class="fil2" d="M8036.82 1085.28c345.33,446.57 255.34,1094.62 -201.03,1447.54 -169.35,131.05 -365.5,202.83 -562.73,218.67 264.02,37.28 542.08,-27.74 769.61,-203.78 447.42,-346.03 529.61,-989.28 183.58,-1436.7 -197.85,-255.72 -492.82,-391.88 -792.66,-397.16 232.28,45.89 448.33,171.29 603.23,371.43z"/>
   <path class="fil3" d="M7922.29 2041.72c-319.35,465.44 -963.93,578.16 -1439.63,251.71 -176.57,-121.12 -304.92,-285.8 -380.44,-468.72 45.45,262.68 192.46,507.58 429.59,670.28 466.45,320.05 1103.95,201.35 1423.96,-265.12 182.97,-266.56 222.29,-589.02 135.48,-876.19 27.41,235.28 -25.75,479.34 -168.96,688.04z"/>
  </g>
 </g>
</svg>
